<svg xmlns="http://www.w3.org/2000/svg" xmlns:xlink="http://www.w3.org/1999/xlink" id="Layer_1" width="2500" height="2500" x="0" y="0" enable-background="new 0 0 2500 2500" version="1.1" viewBox="0 0 2500 2500" xml:space="preserve"><g><path fill="#FFF" d="M0,0h2500v2500H0V0z" display="none"/><path fill="#3A9BD9" d="M628.58,1221.467v-56.341H305.892v56.341H628.58z M303.376,1060.823 c-23.85,0.414-42.847,20.083-42.434,43.933c0.404,23.266,19.167,42.029,42.434,42.433c23.842,0.007,43.185-19.296,43.228-43.138 C346.597,1080.18,327.247,1060.83,303.376,1060.823z M410.752,1059.772c-23.863,0.716-42.628,20.642-41.912,44.505 c0.686,22.857,19.055,41.227,41.912,41.912c23.864-0.412,42.874-20.093,42.461-43.956 C452.811,1078.952,434.034,1060.176,410.752,1059.772z M516.054,1059.772c-23.831-0.015-43.162,19.293-43.176,43.124 c0,0.018,0,0.035,0,0.053c-0.029,23.853,19.284,43.212,43.137,43.24c0.014,0,0.026,0,0.039,0 c23.864-0.412,42.874-20.093,42.461-43.956C558.112,1078.952,539.336,1060.176,516.054,1059.772z M625.57,1059.772 c-23.853-0.021-43.206,19.298-43.228,43.15c0,0.009,0,0.018,0,0.026c0,23.876,19.352,43.233,43.228,43.24 c23.864-0.412,42.874-20.093,42.461-43.956C667.629,1078.952,648.853,1060.176,625.57,1059.772z M476.146,1061.757v-82.449h-23.878 v82.449H476.146z M116.91,1271.802H36.756v212.173h80.153v-84.861l83.266,84.861h97.572l-110.853-120.93l90.749-91.242h-83.836 l-76.897,78.492V1271.802L116.91,1271.802z M304.115,1271.802h76.443v159.126h135.794v53.047H304.115V1271.802z M718.979,1392.732 l40.311-120.93h129.438v212.172h-76.379v-159.139l-55.187,159.139h-78.454l-53.111-159.139v159.139h-78.506v-212.173h131.617 L718.979,1392.732L718.979,1392.732z"/><path fill="#3A9BD9" d="M507.118,1032.848v-23.917h-82.437v23.917H507.118z M1127.099,1487.749H1112.3v-110.321h50.53 c17.963,0,35.913,6.329,35.913,29.688c0,16.265-8.235,22.244-15.239,26.395c6.265,2.633,12.516,5.421,13.1,20.751l0.921,20.038 c0.155,6.109,0.921,8.404,5.486,11.024v2.438h-18.093c-2.166-6.744-2.594-23.488-2.594-27.664c0-9.04-1.881-19.637-19.494-19.637 h-35.731V1487.749L1127.099,1487.749z M1127.099,1427.712h34.188c10.829,0,22.217-2.789,22.217-19.104 c0-17.017-12.309-18.392-19.623-18.392h-36.77v37.496H1127.099z M1251.103,1405.093c25.395,0,36.95,21.711,36.95,42.45 c0,20.726-11.556,42.385-36.95,42.385c-25.421,0-37.003-21.659-37.003-42.385 C1214.112,1426.804,1225.682,1405.093,1251.103,1405.093z M1251.103,1478.294c19.144,0,23.099-19.986,23.099-30.752 c0-10.79-3.955-30.776-23.099-30.776c-19.222,0-23.151,19.986-23.151,30.776 C1227.951,1458.308,1231.881,1478.294,1251.103,1478.294z M1353.058,1407.375h14.747c-9.3,26.315-18.443,52.593-28.599,78.856 c-12.62,32.58-14.008,34.447-31.205,34.447c-1.997,0-3.476-0.636-5.629-1.219v-12.334c1.673,0.661,4.436,1.413,8.08,1.413 c6.99,0,7.756-1.997,14.163-18.624l-29.559-82.553h15.227l21.154,65.511h0.35L1353.058,1407.375L1353.058,1407.375z M1378.92,1431.862c0.558-19.195,13.242-26.77,32.93-26.77c6.329,0,29.441,1.88,29.441,22.463v46.225 c0,3.398,1.725,4.734,4.436,4.734c1.22,0,2.893-0.233,4.436-0.532v9.753c-2.334,0.662-4.254,1.569-7.314,1.569 c-11.829,0-13.709-6.186-14.137-12.256c-5.215,5.654-13.229,13.021-28.807,13.021c-14.564,0-24.901-9.325-24.901-23.203 c0-6.783,1.972-22.425,24.188-25.174l22.062-2.763c3.165-0.299,6.99-1.544,6.99-9.571c0-8.431-6.108-12.996-18.741-12.996 c-15.2,0-17.327,9.325-18.261,15.499H1378.92L1378.92,1431.862z M1427.945,1446.738c-2.127,1.725-5.525,2.97-22.113,5.123 c-6.537,0.908-16.978,2.893-16.978,13.021c0,8.768,4.384,13.981,14.436,13.981c12.489,0,24.642-8.132,24.642-18.896v-13.229 H1427.945z M1464.286,1487.749v-110.321h13.437v110.321H1464.286z M1542.494,1377.428h44.253c28.469,0,46.004,21.842,46.004,53.63 c0,24.772-10.688,56.691-46.588,56.691h-43.669V1377.428L1542.494,1377.428z M1557.254,1475.038h28.624 c19.131,0,31.62-15.2,31.62-43.033c0-27.82-12.619-41.775-32.696-41.775h-27.535v84.809H1557.254z M1701.88,1487.749v-11.621 l-0.351-0.299c-5.654,9.352-12.516,14.267-25.227,14.267c-11.75,0-25.888-5.681-25.888-24.901v-57.807h13.398v53.345 c0,13.229,6.641,17.678,15.356,17.678c16.899,0,21.905-15.07,21.905-26.73v-44.305h13.372v80.374H1701.88L1701.88,1487.749z M1750.996,1418.62v52.255c0,6.304,5.344,6.304,8.08,6.304h4.656v10.557c-4.812,0.506-8.638,1.116-9.987,1.116 c-13.241,0-16.134-7.523-16.134-17.225v-53.02h-10.843v-11.245h10.843v-22.373h13.371v22.373h12.736v11.245h-12.723V1418.62 L1750.996,1418.62z M1826.584,1434.482c-1.673-10.766-7.626-17.225-18.871-17.225c-16.536,0-21.893,15.979-21.893,30.298 c0,13.825,3.346,30.854,21.736,30.854c9.015,0,16.771-6.757,19.027-19.053h12.995c-1.413,12.711-9.169,30.726-32.476,30.726 c-22.321,0-35.615-17.017-35.615-40.271c0-24.877,11.854-44.707,38.195-44.707c20.843,0,28.78,15.382,29.896,29.39h-12.995 V1434.482L1826.584,1434.482z M1917.774,1487.749h-13.397v-52.515c0-10.946-3.062-17.989-15.784-17.989 c-11.024,0-22.27,6.459-22.27,26.73v43.773h-13.346v-110.321h13.346v40.712h0.298c3.801-5.045,10.493-13.047,23.307-13.047 c12.335,0,27.834,5.045,27.834,27.988v54.668H1917.774z M1998.731,1455.648l-11.452,32.101h-15.2l41.088-110.321h16.744 l39.544,110.321h-16.134l-10.791-32.101H1998.731z M2037.187,1442.433l-16.134-48.507h-0.26l-17.562,48.507H2037.187 L2037.187,1442.433z M2081.673,1487.749v-80.374h13.347v80.374H2081.673z M2081.673,1392.811v-15.383h13.347v15.383H2081.673z M2130.388,1487.749h-13.45v-80.374h12.672v13.397h0.26c5.344-9.402,12.359-15.68,22.438-15.68c1.646,0,2.387,0.155,3.45,0.479 v13.981h-4.993c-12.49,0-20.363,9.806-20.363,21.504v46.691H2130.388z M2166.08,1487.749v-110.321h13.398v110.321H2166.08z M2199.867,1487.749v-80.374h13.371v80.374H2199.867z M2199.867,1392.811v-15.383h13.371v15.383H2199.867z M2298.178,1487.749 h-13.424v-49.428c0-14.033-3.93-21.076-17.017-21.076c-7.601,0-21.024,4.89-21.024,26.73v43.773h-13.371v-80.374h12.646v11.427 h0.298c2.893-4.307,10.337-13.709,24.047-13.709c12.281,0,27.858,5.045,27.858,27.988v54.668H2298.178L2298.178,1487.749z M2385.503,1462.613c-0.454,3.801-4.047,15.175-14.138,21.932c-3.645,2.451-8.845,5.525-21.633,5.525 c-22.373,0-35.563-17.016-35.563-40.271c0-24.876,11.854-44.706,38.144-44.706c22.97,0,34.306,18.469,34.306,46.886h-58.13 c0,16.744,7.703,26.419,23.072,26.419c12.62,0,20.116-9.831,20.545-15.784H2385.503L2385.503,1462.613z M2372.754,1441.266 c-0.791-12.49-5.979-24.021-22.243-24.021c-12.309,0-22.036,11.53-22.036,24.021H2372.754z M2447.745,1430.318 c-0.13-5.097-1.972-13.553-18.871-13.553c-4.073,0-15.811,1.361-15.811,11.4c0,6.562,4.099,8.132,14.436,10.765l13.424,3.397 c16.589,4.099,22.321,10.285,22.321,21.18c0,16.589-13.554,26.575-31.49,26.575c-31.491,0-33.773-18.442-34.279-28.118h12.995 c0.454,6.304,2.257,16.445,21.153,16.445c9.598,0,18.262-3.8,18.262-12.762c0-6.434-4.461-8.561-15.81-11.53l-15.551-3.8 c-11.142-2.763-18.392-8.482-18.392-19.559c0-17.652,14.461-25.667,30.064-25.667c28.469,0,30.504,21.231,30.504,25.226H2447.745 L2447.745,1430.318z"/></g></svg>