<svg xmlns="http://www.w3.org/2000/svg" xmlns:xlink="http://www.w3.org/1999/xlink" id="Layer_1" width="2500" height="2500" x="0" y="0" enable-background="new 0 0 2500 2500" version="1.1" viewBox="0 0 2500 2500" xml:space="preserve"><g><polygon points="208.281 1544.388 332.104 1544.388 332.104 1184.062 472.021 1184.062 472.021 1097.385 71.463 1097.385 71.463 1184.062 208.281 1184.062"/><path fill="#0097D5" d="M826.148,1097.385v276.749c-1.868,56.976-31.582,92.863-89.764,92.863c-58.183,0-87.909-35.9-89.764-92.863 v-276.749H522.798v282.948c1.245,124.433,100.918,173.341,213.587,173.341c112.668,0,212.341-48.909,213.586-173.341v-282.948 H826.148z"/><path d="M1216.408,1150.639h90.399c62.515,0,95.925,25.395,113.278,50.776c26.627,38.378,34.045,78.014,34.045,119.478 c0,41.49-7.418,81.113-34.045,119.49c-17.354,25.382-50.764,50.764-113.278,50.764h-90.399V1150.639z M1154.504,1544.388h148.581 c41.465-1.245,85.445-4.332,121.333-27.236c65.004-41.49,94.718-111.437,94.718-196.271c0-84.822-29.714-154.781-94.718-196.245 c-35.9-22.918-79.868-26.005-121.333-27.25h-148.581V1544.388z M1859.566,1400.125v-29.078c0-86.055-43.955-144.872-136.818-146.74 c-98.44,0-144.237,76.172-144.237,167.154c0,91.645,39.623,162.227,139.296,162.227c74.277,0,128.764-35.291,138.037-105.886 h-61.904c-6.783,45.213-29.714,63.176-75.536,63.176c-60.037,0-82.307-56.366-78-110.853H1859.566L1859.566,1400.125z M1640.402,1359.271c0-50.764,29.104-92.229,78.001-92.229c56.976,0,80.503,40.232,79.258,92.229H1640.402L1640.402,1359.271z M1994.426,1544.388v-447.003h-58.792v447.003H1994.426z M2167.676,1544.388v-269.927h71.84v-40.854h-71.84v-49.532 c-1.855-34.045,17.354-42.709,50.764-42.709c9.909,0,19.831,1.245,29.739,1.854v-48.909c-14.267-2.477-27.858-6.187-42.1-6.187 c-43.98,0-95.354,17.964-97.195,86.055v59.44h-60.673v40.854h60.673V1544.4h58.792V1544.388z M2279.358,1231.738v43.955 l53.241-0.636v197.517c0,41.49,3.086,42.735,13.631,57.572c9.883,13.632,25.382,18.573,34.655,20.44 c14.241,2.452,25.382,3.087,39.648,3.087c13.605,0,26.601-3.087,40.232-3.723v-45.187c-9.3,2.478-21.659,3.723-30.959,3.723 c-21.05,0-38.378-10.531-38.378-32.826V1275.07l71.814,0.636v-43.968l-71.814,1.868v-84.822l-58.817,18.572v66.25 L2279.358,1231.738z M36.756,982.563H50.88v14.124H36.756V982.563z"/><path d="M48.053,993.86h19.766v19.753H48.053V993.86z M79.103,996.688h14.111v14.111H79.103V996.688z M93.214,1010.799h14.111 v14.111H93.214V1010.799z M107.325,996.688h14.111v14.111h-14.111V996.688z M93.214,982.563h14.111v14.124H93.214V982.563z M121.436,1039.021h14.111v14.111h-14.111V1039.021z M149.658,982.563h14.111v14.124h-14.111V982.563z M163.769,996.688h14.098 v14.111h-14.098V996.688z M177.867,982.563h14.124v14.124h-14.124V982.563z M191.991,996.688h14.111v14.111h-14.111V996.688z M206.103,1010.799h14.111v14.111h-14.111V1010.799z M248.423,940.243h14.124v14.111h-14.124V940.243z M318.991,982.563h14.111 v14.124h-14.111V982.563z M474.2,1010.799h14.124v14.111H474.2V1010.799z M516.547,982.563h14.111v14.124h-14.111V982.563z M530.658,968.465h14.098v14.099h-14.098V968.465z M544.756,954.354h14.111v14.11h-14.111V954.354z M572.991,954.354h14.111v14.11 h-14.111V954.354z M601.214,954.354h14.098v14.11h-14.098V954.354z M587.103,940.243H601.2v14.111h-14.098V940.243z M558.867,940.243h14.124v14.111h-14.124V940.243z M516.547,954.354h14.111v14.11h-14.111V954.354z M488.324,954.354h14.099v14.11 h-14.099V954.354z M333.103,968.465h14.111v14.099h-14.111V968.465z M163.769,968.465h14.098v14.099h-14.098V968.465z M79.103,968.465h14.111v14.099H79.103V968.465z M93.214,954.354h14.111v14.11H93.214V954.354z M121.436,954.354h14.111v14.11 h-14.111V954.354z M177.867,954.354h14.124v14.11h-14.124V954.354z M318.991,954.354h14.111v14.11h-14.111V954.354z M107.325,940.243h14.111v14.111h-14.111V940.243z M135.547,940.243h14.111v14.111h-14.111V940.243z M163.769,940.243h14.098 v14.111h-14.098V940.243z M191.991,940.243h14.111v14.111h-14.111V940.243z M333.103,940.243h14.111v14.111h-14.111V940.243z M502.423,940.243h14.124v14.111h-14.124V940.243z M530.658,940.243h14.098v14.111h-14.098V940.243z M544.756,926.132h14.111 v14.111h-14.111V926.132z M516.547,926.132h14.111v14.111h-14.111V926.132z M488.324,926.132h14.099v14.111h-14.099V926.132z M347.214,926.132h14.098v14.111h-14.098V926.132z M318.991,926.132h14.111v14.111h-14.111V926.132z M262.547,926.132h14.111 v14.111h-14.111V926.132z M234.325,926.132h14.098v14.111h-14.098V926.132z M177.867,926.132h14.124v14.111h-14.124V926.132z M93.214,926.132h14.111v14.111H93.214V926.132z M64.992,926.132h14.111v14.111H64.992V926.132z M107.325,912.021h14.111v14.111 h-14.111V912.021z M248.423,912.021h14.124v14.111h-14.124V912.021z M333.103,912.021h14.111v14.111h-14.111V912.021z M417.756,912.021h14.111v14.111h-14.111V912.021z M502.423,912.021h14.124v14.111h-14.124V912.021z M530.658,912.021h14.098 v14.111h-14.098V912.021z M558.867,912.021h14.124v14.111h-14.124V912.021z M572.991,897.91h14.111v14.11h-14.111V897.91z M544.756,897.91h14.111v14.11h-14.111V897.91z M516.547,897.91h14.111v14.11h-14.111V897.91z M460.09,897.91h14.11v14.11h-14.11 V897.91z M431.867,897.91h14.111v14.11h-14.111V897.91z M290.756,897.91h14.111v14.11h-14.111V897.91z M262.547,897.91h14.111 v14.11h-14.111V897.91z M177.867,897.91h14.124v14.11h-14.124V897.91z M121.436,897.91h14.111v14.11h-14.111V897.91z M93.214,897.91h14.111v14.11H93.214V897.91z M135.547,883.799h14.111v14.111h-14.111V883.799z M191.991,883.799h14.111v14.111 h-14.111V883.799z M220.214,883.799h14.111v14.111h-14.111V883.799z M248.423,883.799h14.124v14.111h-14.124V883.799z M276.658,883.799h14.098v14.111h-14.098V883.799z M333.103,883.799h14.111v14.111h-14.111V883.799z M361.312,883.799h14.124 v14.111h-14.124V883.799z M417.756,883.799h14.111v14.111h-14.111V883.799z M445.979,883.799h14.111v14.111h-14.111V883.799z M474.2,883.799h14.124v14.111H474.2V883.799z M558.867,883.799h14.124v14.111h-14.124V883.799z M587.103,883.799H601.2v14.111 h-14.098V883.799z M544.756,869.688h14.111v14.111h-14.111V869.688z M460.09,869.688h14.11v14.111h-14.11V869.688z M431.867,869.688h14.111v14.111h-14.111V869.688z M375.436,869.688h14.111v14.111h-14.111V869.688z M347.214,869.688h14.098 v14.111h-14.098V869.688z M290.756,869.688h14.111v14.111h-14.111V869.688z M234.325,869.688h14.098v14.111h-14.098V869.688z M177.867,869.688h14.124v14.111h-14.124V869.688z M121.436,869.688h14.111v14.111h-14.111V869.688z M135.547,855.563h14.111 v14.124h-14.111V855.563z M191.991,855.563h14.111v14.124h-14.111V855.563z M248.423,855.563h14.124v14.124h-14.124V855.563z M304.88,855.563h14.111v14.124H304.88V855.563z M361.312,855.563h14.124v14.124h-14.124V855.563z M417.756,855.563h14.111v14.124 h-14.111V855.563z M389.547,855.563h14.111v14.124h-14.111V855.563z M445.979,855.563h14.111v14.124h-14.111V855.563z M474.2,855.563h14.124v14.124H474.2V855.563z M558.867,855.563h14.124v14.124h-14.124V855.563z M615.312,855.563h14.111v14.124 h-14.111V855.563z M544.756,841.452h14.111v14.111h-14.111V841.452z M460.09,841.452h14.11v14.111h-14.11V841.452z M431.867,841.452h14.111v14.111h-14.111V841.452z M403.658,841.452h14.098v14.111h-14.098V841.452z M375.436,841.452h14.111 v14.111h-14.111V841.452z M347.214,841.452h14.098v14.111h-14.098V841.452z M318.991,841.452h14.111v14.111h-14.111V841.452z M262.547,841.452h14.111v14.111h-14.111V841.452z M206.103,841.452h14.111v14.111h-14.111V841.452z M177.867,841.452h14.124 v14.111h-14.124V841.452z M276.658,827.354h14.098v14.098h-14.098V827.354L276.658,827.354z M389.547,827.354h14.111v14.098 h-14.111V827.354L389.547,827.354z M417.756,827.354h14.111v14.098h-14.111V827.354L417.756,827.354z M488.324,813.243h14.099 v14.099h-14.099V813.243z M431.867,813.243h14.111v14.099h-14.111V813.243z M403.658,813.243h14.098v14.099h-14.098V813.243z M318.991,813.243h14.111v14.099h-14.111V813.243z M290.756,813.243h14.111v14.099h-14.111V813.243z M262.547,813.243h14.111 v14.099h-14.111V813.243z M304.88,799.132h14.111v14.111H304.88V799.132z M333.103,799.132h14.111v14.111h-14.111V799.132z M629.423,813.243h14.124v14.099h-14.124V813.243z M699.991,756.799h14.099v14.098h-14.099V756.799z M615.312,672.119h14.111 v14.111h-14.111V672.119z M601.214,686.23h14.098v14.111h-14.098V686.23z M587.103,700.342H601.2v14.11h-14.098V700.342z M375.436,587.452h14.111v14.111h-14.111V587.452z M361.312,601.563h14.124v14.111h-14.124V601.563z M502.423,686.23h14.124v14.111 h-14.124V686.23z M558.867,770.896h14.124v14.111h-14.124V770.896z M516.547,785.008h14.111v14.124h-14.111V785.008z M488.324,756.799h14.099v14.098h-14.099V756.799z M474.2,714.452h14.124v14.111H474.2V714.452z M445.979,742.675h14.111v14.124 h-14.111V742.675z M445.979,770.896h14.111v14.111h-14.111V770.896z M361.312,742.675h14.124v14.124h-14.124V742.675z M248.423,629.786h14.124v14.11h-14.124V629.786z M276.658,658.008h14.098v14.111h-14.098V658.008z M248.423,658.008h14.124v14.111 h-14.124V658.008z M262.547,700.342h14.111v14.11h-14.111V700.342z M290.756,728.563h14.111v14.111h-14.111V728.563z M248.423,714.452h14.124v14.111h-14.124V714.452z M304.88,770.896h14.111v14.111H304.88V770.896z M318.991,785.008h14.111v14.124 h-14.111V785.008z M290.756,756.799h14.111v14.098h-14.111V756.799z M290.756,785.008h14.111v14.124h-14.111V785.008z M304.88,714.452h14.111v14.111H304.88V714.452z M445.979,799.132h14.111v14.111h-14.111V799.132z M474.2,799.132h14.124v14.111 H474.2V799.132z M474.2,827.354h14.124v14.098H474.2V827.354L474.2,827.354z M502.423,827.354h14.124v14.098h-14.124V827.354 L502.423,827.354z M248.423,827.354h14.124v14.098h-14.124V827.354L248.423,827.354z M304.88,827.354h14.111v14.098H304.88V827.354 L304.88,827.354z"/><path d="M62.164,951.526h19.753v19.753H62.164V951.526z"/><path d="M76.275,937.416h19.753v19.753H76.275V937.416z M104.498,965.638h19.753v19.767h-19.753V965.638z M118.622,923.305h19.74 v19.753h-19.74V923.305z"/><path d="M132.72,909.193h19.753v19.766H132.72V909.193z M104.498,880.972h19.753v19.753h-19.753V880.972z"/><path d="M90.386,866.86h19.766v19.753H90.386V866.86z"/><path d="M104.498,852.749h19.753v19.753h-19.753V852.749z"/><path d="M118.622,838.638h19.74v19.753h-19.74V838.638z"/><path d="M104.498,824.527h19.753v19.752h-19.753V824.527z M132.72,824.527h19.753v19.752H132.72V824.527z"/><path d="M146.831,810.416h19.753v19.753h-19.753V810.416L146.831,810.416z"/><path d="M160.942,796.305h19.766v19.753h-19.766V796.305z"/><path d="M146.831,782.193h19.753v19.753h-19.753V782.193z M175.053,782.193h19.753v19.753h-19.753V782.193z M189.164,909.193 h19.753v19.766h-19.753V909.193z"/><path d="M203.275,895.082h19.753v19.767h-19.753L203.275,895.082L203.275,895.082z M231.498,895.082h19.766v19.767h-19.766V895.082 z M203.275,866.86h19.753v19.753h-19.753L203.275,866.86L203.275,866.86z"/><path d="M217.386,852.749h19.753v19.753h-19.753V852.749z"/><path d="M231.498,838.638h19.766v19.753h-19.766V838.638z"/><path d="M217.386,824.527h19.753v19.752h-19.753V824.527z M189.164,824.527h19.753v19.752h-19.753V824.527z"/><path d="M203.275,810.416h19.753v19.753h-19.753L203.275,810.416L203.275,810.416z"/><path d="M217.386,796.305h19.753v19.753h-19.753V796.305z"/><path d="M231.498,810.416h19.766v19.753h-19.766V810.416L231.498,810.416z"/><path d="M245.608,796.305h19.753v19.753h-19.753V796.305z"/><path d="M231.498,782.193h19.766v19.753h-19.766V782.193z M203.275,782.193h19.753v19.753h-19.753L203.275,782.193L203.275,782.193 z"/><path d="M189.164,768.082h19.753v19.753h-19.753V768.082z M273.831,852.749h19.753v19.753h-19.753V852.749z"/><path d="M287.942,838.638h19.752v19.753h-19.752V838.638z M273.831,796.305h19.753v19.753h-19.753V796.305z"/><path d="M259.72,782.193h19.753v19.753H259.72V782.193z"/><path d="M245.608,768.082h19.753v19.753h-19.753V768.082z M273.831,768.082h19.753v19.753h-19.753V768.082z"/><path d="M259.72,753.958h19.753v19.767H259.72V753.958z M175.053,753.958h19.753v19.767h-19.753V753.958z M203.275,753.958h19.753 v19.767h-19.753L203.275,753.958L203.275,753.958z"/><path d="M245.608,739.86h19.753v19.753h-19.753V739.86z"/><path d="M259.72,725.749h19.753v19.753H259.72V725.749z"/><path d="M273.831,739.86h19.753v19.753h-19.753V739.86z M316.164,753.958h19.753v19.767h-19.753V753.958L316.164,753.958z"/><path d="M302.065,739.86h19.74v19.753h-19.74V739.86z M273.831,711.638h19.753v19.753h-19.753V711.638z"/><path d="M287.942,697.527h19.752v19.753h-19.752V697.527z"/><path d="M273.831,683.402h19.753v19.767h-19.753V683.402z"/><path d="M259.72,669.292h19.753v19.753H259.72V669.292z M344.386,753.958h19.767v19.767h-19.767V753.958z M344.386,782.193h19.767 v19.753h-19.767V782.193z"/><path d="M358.497,768.082h19.753v19.753h-19.753V768.082z M358.497,796.305h19.753v19.753h-19.753V796.305z"/><path d="M372.608,810.416h19.753v19.753h-19.753V810.416L372.608,810.416z"/><path d="M358.497,824.527h19.753v19.752h-19.753V824.527z M443.164,824.527h19.753v19.752h-19.753V824.527z"/><path d="M457.275,810.416h19.753v19.753h-19.753V810.416L457.275,810.416z M414.941,796.305h19.753v19.753h-19.753V796.305 L414.941,796.305z"/><path d="M429.053,782.193h19.753v19.753h-19.753V782.193z"/><path d="M414.941,768.082h19.753v19.753h-19.753V768.082L414.941,768.082z"/><path d="M429.053,753.958h19.753v19.767h-19.753V753.958z M457.275,782.193h19.753v19.753h-19.753V782.193z M499.608,796.305 h19.753v19.753h-19.753V796.305z"/><path d="M485.497,782.193h19.766v19.753h-19.766V782.193z"/><path d="M471.386,768.082h19.753v19.753h-19.753V768.082z"/><path d="M457.275,753.958h19.753v19.767h-19.753V753.958z"/><path d="M471.386,739.86h19.753v19.753h-19.753V739.86z"/><path d="M485.497,725.749h19.766v19.753h-19.766V725.749z"/><path d="M499.608,711.638h19.753v19.753h-19.753V711.638z M541.941,782.193h19.753v19.753h-19.753V782.193z M570.164,923.305 h19.753v19.753h-19.753V923.305z"/><path d="M584.275,909.193h19.753v19.766h-19.753V909.193z M570.164,866.86h19.753v19.753h-19.753V866.86z M598.386,866.86h19.767 v19.753h-19.767V866.86z M570.164,838.638h19.753v19.753h-19.753V838.638z M598.386,810.416h19.767v19.753h-19.767V810.416 L598.386,810.416z"/><path d="M584.275,852.749h19.753v19.753h-19.753V852.749z"/><path d="M598.386,838.638h19.767v19.753h-19.767V838.638z"/><path d="M612.497,824.527h19.753v19.752h-19.753V824.527z M584.275,824.527h19.753v19.752h-19.753V824.527z M640.72,796.305h19.753 v19.753H640.72V796.305z"/></g><line x1="1165.45" x2="1167.209" y1="1873.041" y2="1873.041" fill="none"/></svg>